<svg width="65" height="81" viewBox="0 0 65 81" fill="none" xmlns="http://www.w3.org/2000/svg">
<path d="M33.1337 11.664C31.5296 11.4909 30.0375 12.8863 30.0701 14.4873V59.0828H26.544C27.6712 57.7992 28.354 56.137 28.354 54.298V18.9223C28.2456 10.795 17.0677 8.86233 14.2136 16.4199C8.22718 15.9908 3.68594 22.1386 5.65491 27.6806C-1.88497 31.088 -1.88497 42.1323 5.65491 45.5361C3.68594 51.0962 8.24164 57.2439 14.2136 56.8004C14.5604 57.7199 15.0843 58.542 15.7346 59.2415C12.4505 59.9698 11.2258 64.4842 13.7656 66.7486C10.879 69.4096 12.8949 74.4648 16.8617 74.418H18.1949C18.054 77.4432 20.4818 80.0249 23.5309 80.0104H33.0073C36.0384 80.0104 38.4662 77.4432 38.3397 74.418H39.6728C43.6577 74.4648 45.6556 69.4096 42.769 66.7486C45.7532 63.9938 43.5313 58.8448 39.4489 59.0828C39.6584 54.6947 41.5948 50.6058 44.8788 47.7536C49.1166 44.065 51.6239 38.9449 51.9274 33.3704C52.7222 22.5028 44.0046 12.4428 33.1337 11.664ZM15.2902 50.732C14.163 51.857 13.8776 53.2668 13.8451 54.3125C6.49668 54.125 5.51399 44.1263 12.642 42.3667C13.3068 42.1936 13.7186 41.5121 13.5452 40.8487C12.6709 38.2165 7.71779 41.9881 6.87962 43.333C0.71983 40.69 1.24369 31.4991 7.71779 29.5988C8.19468 29.4582 9.18096 29.2491 10.3081 29.5844C11.4498 29.9161 12.1796 30.6301 12.512 31.0267C12.9563 31.564 13.7511 31.6289 14.275 31.1817C14.8133 30.7382 14.8783 29.9486 14.434 29.4258C12.9094 27.6049 10.4491 26.6385 8.0863 26.9847C6.0523 21.5689 12.7359 16.4668 17.4326 20.1879C18.3863 20.7288 18.6248 22.3117 19.8315 22.3441C23.4009 21.5509 18.4189 17.3069 16.7353 16.9716C18.8307 12.3455 25.8323 13.8202 25.8612 18.9367V54.3125C25.7528 60.0816 17.5771 60.8568 16.3848 55.2175C16.3559 55.0264 16.0995 53.4579 17.0532 52.506C17.2917 52.268 17.5626 52.0949 17.895 51.9687C18.5453 51.7163 18.8777 51.0024 18.6248 50.3534C17.9564 48.7993 16.0994 49.8918 15.2902 50.732ZM33.0217 77.5081H23.5454C21.8943 77.5081 20.5937 76.0658 20.7202 74.418H35.8614C35.9734 76.0658 34.6872 77.5225 33.0217 77.5081ZM39.6873 71.93H16.8798C15.7996 71.93 14.9253 71.043 14.9253 69.9649C14.9253 68.8868 15.7996 67.9998 16.8798 67.9998H39.6873C40.7675 67.9998 41.6418 68.8868 41.6418 69.9649C41.6418 71.043 40.7675 71.9156 39.6873 71.93ZM39.6873 61.5708C40.7675 61.5708 41.6418 62.4578 41.6418 63.5323C41.6418 64.6068 40.7675 65.4974 39.6873 65.4974H16.8798C14.2894 65.4361 14.3075 61.6501 16.8798 61.5852V61.5708H39.6873ZM43.2278 45.8679C39.4019 49.1815 37.133 53.9663 36.9091 59.0828H32.5629V14.4873C32.5918 14.2493 32.6893 14.17 32.9097 14.1519C48.6578 15.4356 55.2909 35.5555 43.2278 45.8679Z" fill="url(#paint0_linear_521_6236)"/>
<path d="M46.8661 32.9843C46.8661 33.6802 46.3098 34.2355 45.6125 34.2355C44.9153 34.2355 44.3589 33.6802 44.3589 32.9843C44.3589 31.5096 44.1204 30.0528 43.6435 28.6755C42.3249 24.857 39.3732 21.8787 35.5654 20.5157C34.9115 20.2777 34.5791 19.5638 34.8031 18.9148C35.0415 18.2657 35.7532 17.916 36.4035 18.154C40.9304 19.7693 44.4384 23.3029 46.0099 27.8498C46.5807 29.4976 46.8661 31.2247 46.8661 32.9843Z" fill="white"/>
<path d="M46.0099 27.8498C44.4384 23.3029 40.9304 19.7693 36.4035 18.154C35.7532 17.916 35.0415 18.2657 34.8031 18.9148C34.5791 19.5638 34.9115 20.2777 35.5654 20.5157C39.3732 21.8787 42.3249 24.857 43.6435 28.6755C44.1204 30.0528 44.3589 31.5096 44.3589 32.9843C44.3589 33.6802 44.9116 34.2355 45.6125 34.2355C46.3134 34.2355 46.8661 33.6802 46.8661 32.9843C46.8661 31.2247 46.5807 29.4976 46.0099 27.8498Z" fill="white"/>
<path d="M46.0099 27.8498C44.4384 23.3029 40.9304 19.7693 36.4035 18.154C35.7532 17.916 35.0415 18.2657 34.8031 18.9148C34.5791 19.5638 34.9115 20.2777 35.5654 20.5157C39.3732 21.8787 42.3249 24.857 43.6435 28.6755C44.1204 30.0528 44.3589 31.5096 44.3589 32.9843C44.3589 33.6802 44.9116 34.2355 45.6125 34.2355C46.3134 34.2355 46.8661 33.6802 46.8661 32.9843C46.8661 31.2247 46.5807 29.4976 46.0099 27.8498Z" fill="white"/>
<path d="M36.4035 18.154C35.7532 17.916 35.0415 18.2657 34.8031 18.9148C34.5791 19.5638 34.9115 20.2777 35.5654 20.5157C39.3732 21.8787 42.3249 24.857 43.6435 28.6755C44.1204 30.0528 44.3589 31.5096 44.3589 32.9843C44.3589 33.6802 44.9116 34.2355 45.6125 34.2355C46.3134 34.2355 46.8661 33.6802 46.8661 32.9843C46.8661 31.2247 46.5807 29.4976 46.0099 27.8498C44.4384 23.3029 40.9304 19.7693 36.4035 18.154Z" fill="white"/>
<path d="M46.0099 27.8498C44.4384 23.3029 40.9304 19.7693 36.4035 18.154C35.7532 17.916 35.0415 18.2657 34.8031 18.9148C34.5791 19.5638 34.9115 20.2777 35.5654 20.5157C39.3732 21.8787 42.3249 24.857 43.6435 28.6755C44.1204 30.0528 44.3589 31.5096 44.3589 32.9843C44.3589 33.6802 44.9116 34.2355 45.6125 34.2355C46.3134 34.2355 46.8661 33.6802 46.8661 32.9843C46.8661 31.2247 46.5807 29.4976 46.0099 27.8498Z" fill="white"/>
<path d="M46.0099 27.8498C44.4384 23.3029 40.9304 19.7693 36.4035 18.154C35.7532 17.916 35.0415 18.2657 34.8031 18.9148C34.5791 19.5638 34.9115 20.2777 35.5654 20.5157C39.3732 21.8787 42.3249 24.857 43.6435 28.6755C44.1204 30.0528 44.3589 31.5096 44.3589 32.9843C44.3589 33.6802 44.9116 34.2355 45.6125 34.2355C46.3134 34.2355 46.8661 33.6802 46.8661 32.9843C46.8661 31.2247 46.5807 29.4976 46.0099 27.8498Z" fill="white"/>
<path d="M46.8661 32.9843C46.8661 33.6802 46.3098 34.2355 45.6125 34.2355C44.9153 34.2355 44.3589 33.6802 44.3589 32.9843C44.3589 31.5096 44.1204 30.0528 43.6435 28.6755C42.3249 24.857 39.3732 21.8787 35.5654 20.5157C34.9115 20.2777 34.5791 19.5638 34.8031 18.9148C35.0415 18.2657 35.7532 17.916 36.4035 18.154C40.9304 19.7693 44.4384 23.3029 46.0099 27.8498C46.5807 29.4976 46.8661 31.2247 46.8661 32.9843Z" fill="white"/>
<path d="M48.7986 17.2523L54.5934 11.4687C55.7351 10.2969 54.0046 8.55529 52.816 9.6947L47.0211 15.4783C45.8939 16.6682 47.6244 18.3917 48.7986 17.2523Z" fill="white"/>
<path d="M63.0876 31.9204H54.8975C53.2464 31.9529 53.2464 34.3903 54.8975 34.4228H63.0876C64.7242 34.3903 64.7242 31.9529 63.0876 31.9204Z" fill="white"/>
<path d="M48.7986 49.0802C47.6244 47.9408 45.8795 49.668 47.0211 50.8543L52.816 56.6378C53.9902 57.7772 55.7351 56.0501 54.5935 54.8638L48.7986 49.0802Z" fill="white"/>
<path d="M32.3569 9.41003V1.23586C32.3244 -0.411954 29.8821 -0.411954 29.8496 1.23586V9.41003C29.8821 11.0578 32.3244 11.0578 32.3569 9.41003Z" fill="white"/>
<defs>
<linearGradient id="paint0_linear_521_6236" x1="51.9777" y1="20.9713" x2="0.73868" y2="20.1518" gradientUnits="userSpaceOnUse">
<stop stop-color="#FF8310"/>
<stop offset="1" stop-color="#FF217E"/>
</linearGradient>
</defs>
</svg>
