<svg width="64" height="64" viewBox="0 0 64 64" fill="none" xmlns="http://www.w3.org/2000/svg">
<path d="M2.65171 26.4033C1.34355 26.6155 0.33161 27.6643 0.166392 28.9793C-0.0532664 30.971 -0.0554777 32.9806 0.159969 34.9728C0.310128 36.3082 1.32829 37.3816 2.65382 37.6021L6.04789 38.1578C6.69949 40.9332 7.79947 43.5839 9.30433 46.0051L7.30656 48.7955C6.51048 49.8749 6.52975 51.352 7.35352 52.4104C7.98933 53.1883 8.66589 53.9321 9.38015 54.6387C10.0351 55.2947 10.7593 55.9539 11.6286 56.6845C12.6786 57.4919 14.1356 57.5088 15.204 56.7261L18.0082 54.7144C20.4271 56.2191 23.0751 57.3194 25.8481 57.9719L26.4049 61.3713C26.6166 62.6799 27.6656 63.6924 28.9809 63.8577C29.5889 63.926 30.2065 63.974 30.8283 63.9996H30.919C31.4749 63.9991 32.0095 63.7853 32.4123 63.4022C32.8311 63.002 33.0674 62.4476 33.0661 61.8684V53.3202C33.0598 52.178 32.1582 51.2417 31.017 51.1923C20.8078 50.6593 12.8032 42.2259 12.8032 32.0027C12.8032 21.7795 20.8078 13.3462 31.017 12.8131C32.16 12.763 33.0621 11.8239 33.0661 10.6798V2.13601C33.0678 1.55611 32.831 1.00118 32.4111 0.601137C31.992 0.189936 31.4199 -0.0270901 30.8335 0.00271012C30.2127 0.0272453 29.5973 0.0719984 28.9658 0.136022C27.6512 0.305451 26.6073 1.32414 26.4058 2.63408L25.8501 6.03026C23.0771 6.68334 20.4291 7.78395 18.0102 9.28891L15.206 7.28145C14.1277 6.49285 12.6566 6.51633 11.604 7.33905C10.8307 7.97212 10.0905 8.64458 9.38647 9.35399C8.66084 10.0633 7.97775 10.8148 7.34067 11.6046C6.5268 12.6559 6.50595 14.1187 7.2895 15.1928L9.30012 18.0003C7.79652 20.4214 6.69802 23.0717 6.04789 25.8466L2.65171 26.4033ZM7.97754 26.9985C8.59766 23.9858 9.78735 21.1193 11.4826 18.5528C11.7255 18.1837 11.7157 17.7031 11.4581 17.3443L9.02507 13.947C8.80015 13.6502 8.79362 13.2418 9.00907 12.9379C9.5937 12.2133 10.221 11.5241 10.8874 10.8739C11.5348 10.22 12.2148 9.59903 12.9247 9.01366C13.2303 8.78073 13.6538 8.78073 13.9594 9.01366L17.3513 11.4478C17.7106 11.7048 18.1912 11.7137 18.5599 11.4702C21.1242 9.77435 23.9891 8.58424 27.0003 7.96412C27.4332 7.87493 27.7663 7.52786 27.8377 7.09159L28.5085 2.98389C28.5568 2.61545 28.8397 2.32165 29.2062 2.25963C29.7704 2.20098 30.3422 2.15939 30.9331 2.1359L30.9096 10.6808C19.5536 11.2608 10.6454 20.6407 10.6518 32.0116C10.658 43.3824 19.5765 52.7525 30.9331 53.32L30.9182 61.8682C30.3453 61.8447 29.778 61.7999 29.218 61.737C28.8498 61.6831 28.5613 61.3929 28.5097 61.0244L27.8377 56.9146C27.7663 56.4783 27.4333 56.1313 27.0003 56.042C23.9891 55.4214 21.1242 54.2311 18.5599 52.5349C18.191 52.2916 17.7105 52.301 17.3513 52.5584L13.9562 54.9946C13.6666 55.2198 13.2644 55.2306 12.9631 55.0213C12.1792 54.361 11.4997 53.7413 10.8874 53.13C10.2334 52.4838 9.61286 51.8046 9.02823 51.0949C8.79815 50.7876 8.79815 50.3655 9.02823 50.0581L11.4591 46.664C11.7165 46.3049 11.7258 45.8243 11.4826 45.4555C9.78724 42.8895 8.59755 40.0232 7.97754 37.0108C7.88845 36.5783 7.5419 36.2453 7.10606 36.1735L2.99942 35.5004C2.61717 35.4372 2.3237 35.1272 2.28158 34.742C2.08182 32.9074 2.08393 31.0563 2.288 29.2221C2.34107 28.8537 2.63086 28.5643 2.99942 28.5118L7.1049 27.8397C7.54243 27.7681 7.88982 27.4332 7.97754 26.9985Z" fill="url(#paint0_linear_521_6257)"/>
<path d="M60.7989 28.8025C59.4477 28.8081 58.2456 29.6619 57.7952 30.9358H33.066V27.7358H50.1324C51.8997 27.7358 53.3323 26.3032 53.3323 24.5359V19.0064C54.8017 18.487 55.683 16.9844 55.4195 15.4484C55.1559 13.9124 53.824 12.7895 52.2656 12.7895C50.7071 12.7895 49.3753 13.9124 49.1117 15.4484C48.8481 16.9844 49.7295 18.487 51.1989 19.0064V24.5359C51.1989 25.125 50.7213 25.6026 50.1322 25.6026H33.066V22.4026H44.7991C45.3881 22.4026 45.8657 21.9251 45.8657 21.3359C45.8657 20.7467 45.3881 20.2692 44.7991 20.2692H33.066V18.1359H39.4659C41.2332 18.1359 42.6659 16.7033 42.6659 14.9359V8.33993C44.1353 7.82048 45.0166 6.31793 44.7531 4.7819C44.4895 3.24587 43.1577 2.12305 41.5992 2.12305C40.0407 2.12305 38.7089 3.24587 38.4453 4.7819C38.1818 6.31793 39.0631 7.82048 40.5325 8.33993V14.9361C40.5325 15.5252 40.055 16.0028 39.4658 16.0028H32.7843C32.4173 15.3208 31.685 14.9168 30.9124 14.9703C21.9238 15.5397 14.9248 22.996 14.9248 32.0026C14.9248 41.0092 21.9238 48.4655 30.9124 49.0349H31.0372C31.7658 49.041 32.4382 48.6436 32.7843 48.0024H39.4658C40.0548 48.0024 40.5325 48.4799 40.5325 49.0691V55.6653C39.0631 56.1847 38.1818 57.6873 38.4453 59.2233C38.7089 60.7593 40.0407 61.8821 41.5992 61.8821C43.1577 61.8821 44.4895 60.7593 44.7531 59.2233C45.0166 57.6873 44.1353 56.1847 42.6659 55.6653V49.0691C42.6659 47.3018 41.2333 45.8691 39.4659 45.8691H33.066V43.7358H44.7991C45.3881 43.7358 45.8657 43.2583 45.8657 42.6692C45.8657 42.0801 45.3881 41.6025 44.7991 41.6025H33.066V38.4026H50.1324C50.7214 38.4026 51.1991 38.8801 51.1991 39.4692V44.9987C49.7297 45.5181 48.8483 47.0207 49.1119 48.5567C49.3755 50.0927 50.7073 51.2155 52.2658 51.2155C53.8243 51.2155 55.1561 50.0927 55.4197 48.5567C55.6832 47.0207 54.8019 45.5181 53.3325 44.9987V39.4692C53.3325 37.7019 51.8999 36.2693 50.1326 36.2693H33.066V33.0691H57.7952C58.3402 34.5993 59.9468 35.4768 61.5289 35.1085C63.111 34.7401 64.1648 33.2433 63.978 31.6296C63.7911 30.0162 62.4232 28.7997 60.7989 28.8025ZM52.2657 14.9361C52.8547 14.9361 53.3323 15.4136 53.3323 16.0028C53.3323 16.592 52.8547 17.0695 52.2657 17.0695C51.6766 17.0695 51.1991 16.592 51.1991 16.0028C51.1991 15.4136 51.6765 14.9361 52.2657 14.9361ZM41.5992 4.26961C42.1883 4.26961 42.6659 4.74715 42.6659 5.33631C42.6659 5.92548 42.1884 6.40291 41.5992 6.40291C41.01 6.40291 40.5326 5.92537 40.5326 5.33631C40.5326 4.74726 41.01 4.26961 41.5992 4.26961ZM41.5992 59.7354C41.0101 59.7354 40.5326 59.2578 40.5326 58.6687C40.5326 58.0795 41.0101 57.602 41.5992 57.602C42.1883 57.602 42.6659 58.0795 42.6659 58.6687C42.6659 59.2578 42.1883 59.7354 41.5992 59.7354ZM52.2657 49.0689C51.6766 49.0689 51.1991 48.5913 51.1991 48.0022C51.1991 47.413 51.6766 46.9356 52.2657 46.9356C52.8547 46.9356 53.3323 47.4131 53.3323 48.0022C53.3323 48.5912 52.8547 49.0689 52.2657 49.0689ZM17.0662 32.0025C17.0752 24.1726 23.1235 17.6759 30.9327 17.1078V46.8973C23.1235 46.329 17.0752 39.8323 17.0662 32.0025ZM60.7989 33.0691C60.2098 33.0691 59.7322 32.5915 59.7322 32.0024C59.7322 31.4132 60.2097 30.9358 60.7989 30.9358C61.388 30.9358 61.8656 31.4133 61.8656 32.0024C61.8656 32.5914 61.3879 33.0691 60.7989 33.0691Z" fill="white"/>
<defs>
<linearGradient id="paint0_linear_521_6257" x1="33.0661" y1="8.72717" x2="0.46543" y2="8.37287" gradientUnits="userSpaceOnUse">
<stop stop-color="#FF8310"/>
<stop offset="1" stop-color="#FF217E"/>
</linearGradient>
</defs>
</svg>
