<svg width="58" height="59" viewBox="0 0 58 59" fill="none" xmlns="http://www.w3.org/2000/svg">
<path d="M35.7396 7.86205C35.186 7.86205 34.7363 7.41327 34.7363 6.86071C34.7363 6.30815 35.186 5.85938 35.7396 5.85938H50.3647C50.9183 5.85938 51.368 6.30815 51.368 6.86071C51.368 7.41327 50.9183 7.86205 50.3647 7.86205H35.7396Z" fill="url(#paint0_linear_521_6269)"/>
<path d="M9 9C7.89624 9 7 8.10197 7 7C7 5.89803 7.89803 5 9 5C10.102 5 11 5.89803 11 7C11 8.10197 10.102 9 9 9Z" fill="url(#paint1_linear_521_6269)"/>
<path d="M15 9C13.8962 9 13 8.10197 13 7C13 5.89803 13.898 5 15 5C16.102 5 17 5.89803 17 7C17 8.10197 16.102 9 15 9Z" fill="url(#paint2_linear_521_6269)"/>
<path d="M21 9C19.8962 9 19 8.10197 19 7C19 5.89803 19.898 5 21 5C22.102 5 23 5.89803 23 7C23 8.10197 22.102 9 21 9Z" fill="url(#paint3_linear_521_6269)"/>
<path d="M6.92471 58.069C3.10544 58.069 0 54.9669 0 51.1579V6.91118C0 3.09937 3.10825 0 6.92471 0H50.3362C54.1555 0 57.2609 3.10218 57.2609 6.91118V51.1494C57.2609 51.8226 57.1654 52.4649 56.9799 53.0652C56.859 53.4803 56.4684 53.7692 56.03 53.7692C55.9288 53.7692 55.8276 53.7552 55.7293 53.7243C55.4792 53.6514 55.2684 53.4831 55.1419 53.2503C55.0126 53.0119 54.9873 52.737 55.0688 52.4761C55.1925 52.0442 55.2543 51.5982 55.2543 51.1523V13.7214H2.01221V51.1466C2.01221 53.8561 4.21834 56.058 6.93314 56.058H40.0391C40.5871 56.058 41.0311 56.5123 41.0311 57.0677C41.0311 57.6231 40.5815 58.069 40.0278 58.069H6.9219H6.92471ZM55.2656 11.7103V6.91118C55.2656 4.20449 53.0594 1.99987 50.3446 1.99987H6.93314C4.21834 1.99987 2.01221 4.20168 2.01221 6.91118V11.7103H55.2656Z" fill="url(#paint4_linear_521_6269)"/>
<defs>
<linearGradient id="paint0_linear_521_6269" x1="51.368" y1="6.13247" x2="35.4541" y2="3.35251" gradientUnits="userSpaceOnUse">
<stop stop-color="#FF8310"/>
<stop offset="1" stop-color="#FF217E"/>
</linearGradient>
<linearGradient id="paint1_linear_521_6269" x1="11" y1="5.54545" x2="7.05758" y2="5.46252" gradientUnits="userSpaceOnUse">
<stop stop-color="#FF8310"/>
<stop offset="1" stop-color="#FF217E"/>
</linearGradient>
<linearGradient id="paint2_linear_521_6269" x1="17" y1="5.54545" x2="13.0576" y2="5.46252" gradientUnits="userSpaceOnUse">
<stop stop-color="#FF8310"/>
<stop offset="1" stop-color="#FF217E"/>
</linearGradient>
<linearGradient id="paint3_linear_521_6269" x1="23" y1="5.54545" x2="19.0576" y2="5.46252" gradientUnits="userSpaceOnUse">
<stop stop-color="#FF8310"/>
<stop offset="1" stop-color="#FF217E"/>
</linearGradient>
<linearGradient id="paint4_linear_521_6269" x1="57.2609" y1="7.91847" x2="0.823604" y2="6.74785" gradientUnits="userSpaceOnUse">
<stop stop-color="#FF8310"/>
<stop offset="1" stop-color="#FF217E"/>
</linearGradient>
</defs>
</svg>
