<svg width="58" height="65" viewBox="0 0 58 65" fill="none" xmlns="http://www.w3.org/2000/svg">
<path d="M53.7343 64.8736C52.6242 64.8736 51.5788 64.4416 50.7947 63.6591L42.3974 55.2782C41.6133 54.504 41.1805 53.4634 41.1805 52.3443C41.1805 51.5673 41.4025 50.8072 41.8213 50.1369L40.1182 48.4371C37.069 51.127 33.1654 52.6051 29.11 52.6051C23.6973 52.6051 18.6134 49.9686 15.5051 45.5481H15.4377L15.4321 45.4471C13.5126 42.6759 12.498 39.4223 12.498 36.034C12.498 26.8986 19.9455 19.4629 29.0988 19.4629C38.2521 19.4629 45.7108 26.9014 45.7108 36.0424C45.7108 39.4335 44.6934 42.6899 42.7683 45.464V45.4724L42.7459 45.4948L42.7121 45.5453H42.7065C42.3721 46.0305 41.9843 46.5214 41.5318 47.0291L43.2349 48.7288C43.8981 48.3109 44.6625 48.0921 45.4522 48.0921C46.5595 48.0921 47.6022 48.5241 48.3862 49.3066L56.7836 57.6875C57.5677 58.4617 58.0005 59.4995 58.0005 60.6102C58.0005 61.7209 57.5677 62.7587 56.7836 63.5441L56.6712 63.6563C55.8955 64.4388 54.8529 64.8708 53.7315 64.8708L53.7343 64.8736ZM45.4382 50.1032C44.8621 50.1032 44.3197 50.3248 43.915 50.7315L43.8138 50.8325C43.4091 51.2448 43.1843 51.7861 43.1843 52.3527C43.1843 52.9193 43.4063 53.469 43.8138 53.8729L52.2111 62.2538C52.599 62.6409 53.1526 62.8625 53.7343 62.8625C54.3161 62.8625 54.8725 62.6409 55.2604 62.2538L55.3728 62.1417C55.7803 61.735 55.9995 61.1992 55.9911 60.6326C55.9911 60.0548 55.769 59.5135 55.3615 59.1096L46.9642 50.7287C46.5595 50.3248 46.0171 50.1004 45.441 50.1004L45.4382 50.1032ZM17.5792 44.9422C20.3333 48.4876 24.6331 50.6025 29.1072 50.6025C33.5813 50.6025 37.8811 48.4876 40.6353 44.9422C37.9683 41.5063 33.9607 39.4503 29.6215 39.3017C29.4641 39.3213 29.2843 39.3325 29.11 39.3325C28.992 39.3325 28.874 39.3241 28.7587 39.3157C28.7025 39.3101 28.6491 39.3073 28.5929 39.3045C24.2481 39.4644 20.2434 41.5203 17.5848 44.9451L17.5792 44.9422ZM29.1072 21.4656C25.2065 21.4656 21.5389 22.9858 18.7792 25.743C16.0222 28.5002 14.5046 32.1577 14.5103 36.0424C14.5103 38.5556 15.1595 41.0267 16.3904 43.1976C18.5796 40.6003 21.5727 38.707 24.8608 37.8319C23.2757 36.5529 22.3343 34.6119 22.3343 32.5812C22.3343 28.8536 25.3723 25.8215 29.1072 25.8215C32.8422 25.8215 35.8802 28.8536 35.8802 32.5812C35.8802 34.6119 34.9415 36.5529 33.3565 37.8319C36.6362 38.6958 39.6264 40.5919 41.8241 43.2004C43.055 41.0295 43.7014 38.5584 43.7014 36.0452C43.7014 28.0065 37.1533 21.4656 29.1044 21.4656H29.1072ZM29.1185 27.813C26.488 27.813 24.3493 29.9475 24.3493 32.5728C24.3493 35.0383 26.2126 37.0606 28.6829 37.2822C28.7391 37.2822 28.8121 37.2794 28.8824 37.2766C28.9583 37.2766 29.0342 37.271 29.1044 37.271C29.1747 37.271 29.2421 37.271 29.3152 37.2766C29.3911 37.2766 29.4726 37.2822 29.5597 37.2822C32.0187 37.0634 33.882 35.0383 33.882 32.5728C33.882 29.9475 31.7433 27.813 29.1128 27.813H29.1185Z" fill="white"/>
<path d="M35.7396 7.86205C35.186 7.86205 34.7363 7.41327 34.7363 6.86071C34.7363 6.30815 35.186 5.85938 35.7396 5.85938H50.3647C50.9183 5.85938 51.368 6.30815 51.368 6.86071C51.368 7.41327 50.9183 7.86205 50.3647 7.86205H35.7396Z" fill="url(#paint0_linear_521_6267)"/>
<path d="M9 9C7.89624 9 7 8.10197 7 7C7 5.89803 7.89803 5 9 5C10.102 5 11 5.89803 11 7C11 8.10197 10.102 9 9 9Z" fill="url(#paint1_linear_521_6267)"/>
<path d="M15 9C13.8962 9 13 8.10197 13 7C13 5.89803 13.898 5 15 5C16.102 5 17 5.89803 17 7C17 8.10197 16.102 9 15 9Z" fill="url(#paint2_linear_521_6267)"/>
<path d="M21 9C19.8962 9 19 8.10197 19 7C19 5.89803 19.898 5 21 5C22.102 5 23 5.89803 23 7C23 8.10197 22.102 9 21 9Z" fill="url(#paint3_linear_521_6267)"/>
<path d="M6.92471 58.069C3.10544 58.069 0 54.9669 0 51.1579V6.91118C0 3.09937 3.10825 0 6.92471 0H50.3362C54.1555 0 57.2609 3.10218 57.2609 6.91118V51.1494C57.2609 51.8226 57.1654 52.4649 56.9799 53.0652C56.859 53.4803 56.4684 53.7692 56.03 53.7692C55.9288 53.7692 55.8276 53.7552 55.7293 53.7243C55.4792 53.6514 55.2684 53.4831 55.1419 53.2503C55.0126 53.0119 54.9873 52.737 55.0688 52.4761C55.1925 52.0442 55.2543 51.5982 55.2543 51.1523V13.7214H2.01221V51.1466C2.01221 53.8561 4.21834 56.058 6.93314 56.058H40.0391C40.5871 56.058 41.0311 56.5123 41.0311 57.0677C41.0311 57.6231 40.5815 58.069 40.0278 58.069H6.9219H6.92471ZM55.2656 11.7103V6.91118C55.2656 4.20449 53.0594 1.99987 50.3446 1.99987H6.93314C4.21834 1.99987 2.01221 4.20168 2.01221 6.91118V11.7103H55.2656Z" fill="url(#paint4_linear_521_6267)"/>
<defs>
<linearGradient id="paint0_linear_521_6267" x1="51.368" y1="6.13247" x2="35.4541" y2="3.35251" gradientUnits="userSpaceOnUse">
<stop stop-color="#FF8310"/>
<stop offset="1" stop-color="#FF217E"/>
</linearGradient>
<linearGradient id="paint1_linear_521_6267" x1="11" y1="5.54545" x2="7.05758" y2="5.46252" gradientUnits="userSpaceOnUse">
<stop stop-color="#FF8310"/>
<stop offset="1" stop-color="#FF217E"/>
</linearGradient>
<linearGradient id="paint2_linear_521_6267" x1="17" y1="5.54545" x2="13.0576" y2="5.46252" gradientUnits="userSpaceOnUse">
<stop stop-color="#FF8310"/>
<stop offset="1" stop-color="#FF217E"/>
</linearGradient>
<linearGradient id="paint3_linear_521_6267" x1="23" y1="5.54545" x2="19.0576" y2="5.46252" gradientUnits="userSpaceOnUse">
<stop stop-color="#FF8310"/>
<stop offset="1" stop-color="#FF217E"/>
</linearGradient>
<linearGradient id="paint4_linear_521_6267" x1="57.2609" y1="7.91847" x2="0.823604" y2="6.74785" gradientUnits="userSpaceOnUse">
<stop stop-color="#FF8310"/>
<stop offset="1" stop-color="#FF217E"/>
</linearGradient>
</defs>
</svg>
