<svg width="72" height="83" viewBox="0 0 72 83" fill="none" xmlns="http://www.w3.org/2000/svg">
<path fill-rule="evenodd" clip-rule="evenodd" d="M68.9969 52.0547C66.8139 51.4468 64.5454 52.725 63.9363 54.9037C63.6399 55.9586 63.7749 57.066 64.3149 58.0189C64.6343 58.5841 65.0722 59.0508 65.5957 59.4024L65.171 60.9238L64.7396 60.8022C64.0482 60.6084 63.3304 61.0126 63.1395 61.7026C62.9452 62.3927 63.3502 63.1091 64.0416 63.2997L64.4729 63.4213L64.2886 64.0785C64.0943 64.7686 64.4993 65.4849 65.1907 65.6755C65.306 65.7084 65.4245 65.7248 65.5397 65.7248C66.1093 65.7248 66.6295 65.3502 66.7909 64.7751L66.9753 64.1179L67.4066 64.2395C67.5218 64.2724 67.6403 64.2888 67.7556 64.2888C68.3252 64.2888 68.8454 63.9142 69.0067 63.3391C69.201 62.649 68.796 61.9327 68.1046 61.7421L67.6733 61.6205L68.098 60.0957C68.7269 60.0662 69.3459 59.8953 69.9089 59.5765C70.8637 59.0376 71.5552 58.1602 71.8482 57.1054C72.4573 54.9267 71.1765 52.6626 68.9936 52.0547H68.9969ZM69.3492 56.4087C69.2405 56.7965 68.987 57.1185 68.6347 57.3157C68.2824 57.5129 67.8774 57.5622 67.4889 57.4537C67.1004 57.3453 66.7777 57.0923 66.5802 56.7439C66.3826 56.3923 66.3332 55.9881 66.4419 55.6004C66.6263 54.9333 67.2354 54.4995 67.8972 54.4995C68.0322 54.4995 68.1672 54.516 68.3021 54.5554C69.1055 54.7788 69.5731 55.6102 69.3525 56.412L69.3492 56.4087Z" fill="white"/>
<path fill-rule="evenodd" clip-rule="evenodd" d="M8.84912 52.9914L8.44414 53.1853L7.75929 51.7624C8.9907 50.5663 9.3858 48.6735 8.59889 47.0436C8.12147 46.0577 7.28846 45.3151 6.25461 44.9536C5.21747 44.5922 4.1046 44.6546 3.11355 45.1311C2.12579 45.6076 1.38168 46.4389 1.01951 47.4708C0.657328 48.5026 0.719886 49.6166 1.1973 50.6057C1.67472 51.5915 2.50772 52.3342 3.54158 52.6956C3.98607 52.8501 4.44373 52.929 4.90139 52.929C5.07589 52.929 5.2471 52.9158 5.41831 52.8928L6.10316 54.3124L5.69818 54.5063C5.05284 54.8185 4.77956 55.5907 5.09235 56.238C5.31624 56.7014 5.78049 56.9708 6.26449 56.9708C6.45216 56.9708 6.64642 56.9281 6.82751 56.8427L7.23249 56.6488L7.52882 57.2666C7.75271 57.7299 8.21696 57.9994 8.70096 57.9994C8.88863 57.9994 9.08289 57.9567 9.26398 57.8712C9.90931 57.5591 10.1826 56.7868 9.8698 56.1395L9.57347 55.5217L9.97845 55.3278C10.6238 55.0156 10.8971 54.2434 10.5843 53.596C10.2715 52.952 9.49775 52.6792 8.84912 52.9914ZM3.53499 49.4786C3.36049 49.1171 3.33744 48.7063 3.46914 48.3284C3.60084 47.9472 3.87412 47.6416 4.23959 47.4675C4.44702 47.3689 4.67091 47.3163 4.8948 47.3163C5.06272 47.3163 5.23064 47.3459 5.39527 47.4018C5.7772 47.5332 6.0834 47.8059 6.25791 48.1707C6.62008 48.9199 6.304 49.8203 5.55331 50.1818C5.19113 50.356 4.77956 50.379 4.40092 50.2475C4.01899 50.1161 3.71279 49.8433 3.53828 49.4786H3.53499Z" fill="white"/>
<path fill-rule="evenodd" clip-rule="evenodd" d="M52.287 67.7522C39.6503 74.2455 28.4623 70.7294 22.921 68.0545C22.2757 67.7423 21.4986 68.0118 21.1858 68.6591C20.873 69.3032 21.143 70.0787 21.7917 70.3909C24.5277 71.7119 28.9364 73.3878 34.3987 73.8741C35.4359 73.9662 36.4664 74.0122 37.4937 74.0122C42.9988 74.0122 48.3656 72.6879 53.4789 70.059C54.1176 69.7304 54.3679 68.9483 54.0386 68.3141C53.7093 67.6799 52.9257 67.4268 52.287 67.7555V67.7522Z" fill="white"/>
<path fill-rule="evenodd" clip-rule="evenodd" d="M22.0787 62.6323C24.7556 63.8942 29.0622 65.4978 34.3664 65.9743C35.4102 66.0696 36.4506 66.1156 37.4877 66.1156C42.7031 66.1156 47.7966 64.926 52.6663 62.5666C53.3116 62.2544 53.5816 61.4789 53.2688 60.8349C52.956 60.1908 52.179 59.9213 51.5336 60.2335C39.3283 66.1452 28.5354 62.8032 23.1883 60.2861C22.5397 59.9805 21.766 60.2565 21.4597 60.9039C21.1535 61.5512 21.4301 62.3234 22.0787 62.6291V62.6323Z" fill="white"/>
<path d="M18.1573 19.6705C17.4396 19.6705 16.8568 19.0889 16.8568 18.3725V10.7619C16.8568 7.38384 19.6126 4.63338 22.9973 4.63338C24.637 4.63338 26.1812 5.27088 27.3402 6.42759C28.4991 7.58758 29.1379 9.12547 29.1379 10.7619C29.1379 11.4783 28.5551 12.0599 27.8374 12.0599C27.1196 12.0599 26.5368 11.4783 26.5368 10.7619C26.5368 9.81883 26.168 8.9283 25.4997 8.26122C24.8313 7.59415 23.9423 7.22611 22.9941 7.22611C21.0416 7.22611 19.4513 8.81329 19.4513 10.7619V18.3725C19.4513 19.0889 18.8685 19.6705 18.1508 19.6705H18.1573ZM52.0308 25.7498C48.6461 25.7498 45.8902 22.9993 45.8902 19.6212V9.31277C45.8902 5.93467 48.6461 3.18422 52.0308 3.18422C55.4155 3.18422 58.1713 5.93467 58.1713 9.31277V19.6212C58.1713 23.0026 55.4155 25.7498 52.0308 25.7498ZM52.0308 5.77694C50.0783 5.77694 48.488 7.36412 48.488 9.31277V19.6212C48.488 21.5699 50.0783 23.1571 52.0308 23.1571C53.9833 23.1571 55.5735 21.5699 55.5735 19.6212V9.31277C55.5735 7.36412 53.9833 5.77694 52.0308 5.77694ZM32.6806 28.6448C29.2959 28.6448 26.5401 25.8944 26.5401 22.5163V7.86689C26.5401 4.4888 29.2959 1.73834 32.6806 1.73834C36.0654 1.73834 38.8212 4.4888 38.8212 7.86689V22.5163C38.8212 25.8944 36.0654 28.6448 32.6806 28.6448ZM32.6806 4.33106C30.7282 4.33106 29.1379 5.91824 29.1379 7.86689V22.5163C29.1379 24.4649 30.7282 26.0521 32.6806 26.0521C34.6331 26.0521 36.2234 24.4649 36.2234 22.5163V7.86689C36.2234 5.91824 34.6331 4.33106 32.6806 4.33106ZM42.3672 30.3832C38.9825 30.3832 36.2267 27.6327 36.2267 24.2546V6.12855C36.2267 2.75046 38.9825 0 42.3672 0C45.752 0 48.5078 2.75046 48.5078 6.12855V24.2513C48.5078 27.6294 45.752 30.3799 42.3672 30.3799V30.3832ZM42.3672 2.59272C40.4148 2.59272 38.8245 4.1799 38.8245 6.12855V24.2513C38.8245 26.2 40.4148 27.7872 42.3672 27.7872C44.3197 27.7872 45.91 26.2 45.91 24.2513V6.12855C45.91 4.1799 44.3197 2.59272 42.3672 2.59272ZM37.6787 83C32.2395 83 26.8265 82.116 21.5914 80.3711C21.0449 80.1904 20.6827 79.6712 20.7058 79.0961L21.6738 52.0319C21.6803 51.8512 21.6145 51.677 21.4927 51.5456L13.1264 42.5417C10.4364 39.9128 9.99519 35.24 9.60338 31.1127C9.46509 29.6602 9.33668 28.2866 9.11937 27.1989C9.11279 27.1694 9.1095 27.1398 9.10291 27.1069C8.80659 24.7804 9.43546 22.4801 10.8743 20.6235C12.3065 18.7767 14.3742 17.5937 16.6955 17.2914L22.1051 16.4239C23.6295 16.1807 25.1474 16.5553 26.3854 17.4754C27.62 18.3988 28.407 19.7494 28.6045 21.2774C28.7889 22.7364 28.407 24.1889 27.5246 25.3653C26.6422 26.5417 25.3548 27.3205 23.8995 27.5538L21.1502 27.9942C20.1888 28.1486 19.5303 29.026 19.6521 29.9888C19.741 30.6986 19.2406 31.3493 18.5261 31.438C17.8149 31.53 17.163 31.0272 17.0741 30.3142C16.9292 29.1772 17.2289 28.05 17.9137 27.1332C18.6018 26.2164 19.6028 25.6118 20.7354 25.431L23.4846 24.9907C25.1177 24.7278 26.2339 23.2392 26.0265 21.6027C25.9211 20.7779 25.4964 20.0484 24.828 19.5522C24.1596 19.0527 23.3398 18.8523 22.5166 18.9837L17.0873 19.8545C17.0873 19.8545 17.0609 19.8578 17.0445 19.8611C15.4015 20.0681 13.9396 20.9028 12.9255 22.2107C11.9213 23.5054 11.4768 25.109 11.6711 26.7356C11.9114 27.9449 12.0431 29.3645 12.1847 30.8695C12.5337 34.5631 12.9288 38.7463 14.9537 40.7015C14.9702 40.7179 14.9866 40.7343 15.0031 40.7508L23.3925 49.7809C23.9851 50.4217 24.2946 51.2531 24.265 52.1239L23.3332 78.2089C32.6806 81.1204 42.4957 81.1204 52.5444 78.2089L49.7754 51.6474C49.6733 50.6813 50.0059 49.7251 50.6874 49.0284L57.5655 41.9699C58.4743 41.0367 58.9813 39.7584 58.9583 38.4571C58.6422 20.5643 58.2866 17.8829 58.1845 17.4886L55.6361 9.71696C55.4122 9.03674 55.7843 8.30394 56.4658 8.08049C57.1474 7.85704 57.8816 8.22836 58.1055 8.90858L60.6572 16.69C60.8054 17.1435 61.2005 18.3528 61.5561 38.4078C61.5923 40.3926 60.8152 42.3511 59.4291 43.774L52.551 50.8325C52.4094 50.9771 52.3403 51.1742 52.3633 51.3747L55.2443 79.0008C55.3068 79.6153 54.9282 80.1904 54.3356 80.3744C48.7613 82.0963 43.2101 82.977 37.8301 82.9934C37.7775 82.9934 37.7281 82.9934 37.6787 82.9934V83ZM35.2916 46.5409C34.6792 46.5409 34.1359 46.1071 34.0174 45.486C33.2503 41.454 31.5777 38.4571 29.0424 36.5774C27.1591 35.1809 25.4667 34.9443 25.447 34.941H25.4569L25.7631 32.368C25.8553 32.3778 28.0382 32.6539 30.4516 34.3922C31.8443 35.3977 33.0461 36.6892 34.024 38.2336C35.2192 40.1264 36.0785 42.4037 36.5724 45.003C36.7074 45.7062 36.2432 46.3864 35.5386 46.5179C35.4562 46.5343 35.3739 46.5409 35.2949 46.5409H35.2916Z" fill="url(#paint0_linear_521_6282)"/>
<defs>
<linearGradient id="paint0_linear_521_6282" x1="61.5573" y1="11.3181" x2="9.77365" y2="10.6288" gradientUnits="userSpaceOnUse">
<stop stop-color="#FF8310"/>
<stop offset="1" stop-color="#FF217E"/>
</linearGradient>
</defs>
</svg>
