<svg width="19" height="18" viewBox="0 0 19 18" fill="none" xmlns="http://www.w3.org/2000/svg">
<path d="M2.5111 0.277344C1.16398 0.277344 0.283203 1.1747 0.283203 2.35414C0.283203 3.50754 1.13774 4.43048 2.45941 4.43048H2.48498C3.85845 4.43048 4.71322 3.50754 4.71322 2.35414C4.68754 1.1747 3.85845 0.277344 2.5111 0.277344Z" fill="white"/>
<path d="M0.560547 6.0918H4.43681V17.7206H0.560547V6.0918Z" fill="white"/>
<path d="M14.2392 5.53809C12.0862 5.53809 10.6425 7.54369 10.6425 7.54369V5.81746H6.65137V17.7206H10.6423V11.0734C10.6423 10.7176 10.6683 10.3623 10.7738 10.1078C11.0623 9.39721 11.7189 8.66105 12.8214 8.66105C14.2656 8.66105 14.8432 9.75262 14.8432 11.3528V17.7206H18.8339V10.8956C18.8339 7.23942 16.8649 5.53809 14.2392 5.53809Z" fill="white"/>
</svg>
