<svg width="100" height="93" viewBox="0 0 100 93" fill="none" xmlns="http://www.w3.org/2000/svg">
<g filter="url(#filter0_d_309_26)">
<path d="M17.1116 70.973C17.3582 71.7751 17.482 72.7419 17.482 73.8725V82.2619H13.3172V72.9788C13.3172 71.2108 13.1271 69.9614 12.7469 69.2314C12.3657 68.5014 11.8471 68.1369 11.189 68.1369C10.5923 68.1369 10.0162 68.3991 9.46145 68.9234C8.90575 69.4478 8.54601 70.091 8.38125 70.8512C8.23696 71.5091 8.1658 72.6396 8.1658 74.2438V82.2629H4V67.4586H8.16482V69.247C8.59671 68.6096 9.14656 68.1213 9.81535 67.7822C10.4832 67.443 11.2085 67.2734 11.9904 67.2734C12.7723 67.2734 13.4966 67.3923 14.1654 67.6282C14.8332 67.865 15.4347 68.2909 15.97 68.9079C16.4837 69.4838 16.8649 70.1719 17.1116 70.974V70.973Z" fill="#DC3C45"/>
<path d="M20.29 63.8484C20.29 63.2929 20.4957 62.8104 20.9072 62.3992C21.3186 61.9879 21.8119 61.7822 22.388 61.7822C22.9642 61.7822 23.4263 61.9879 23.8377 62.3992C24.2492 62.8104 24.4549 63.2938 24.4549 63.8484C24.4549 64.4029 24.254 64.9127 23.8533 65.3132C23.4527 65.7138 22.9632 65.9146 22.388 65.9146C21.8129 65.9146 21.3186 65.7138 20.9072 65.3132C20.4957 64.9127 20.29 64.4244 20.29 63.8484ZM20.3203 82.2616V67.4573H24.4539V82.2616H20.3203Z" fill="#DC3C45"/>
<path d="M48.4729 70.8342C48.6474 71.6051 48.7351 72.5153 48.7351 73.564V82.2614H44.5703V71.2815C44.5703 70.3975 44.4367 69.652 44.1696 69.0457C43.9025 68.4395 43.4491 68.1355 42.8125 68.1355C42.4011 68.1355 41.9897 68.2953 41.5783 68.614C41.1669 68.9327 40.8276 69.3693 40.5605 69.9248C40.3548 70.3975 40.2212 70.8917 40.1598 71.4053C40.0984 71.9199 40.0672 72.6391 40.0672 73.564V82.2614H35.9336V71.2815C35.9336 70.3975 35.8 69.652 35.5319 69.0457C35.2648 68.4395 34.8114 68.1355 34.1748 68.1355C33.7429 68.1355 33.3208 68.2953 32.9104 68.614C32.4989 68.9327 32.1704 69.3693 31.9228 69.9248C31.7171 70.3975 31.5835 70.8917 31.5221 71.4053C31.4607 71.9199 31.4295 72.6391 31.4295 73.564V82.2614H27.2646V67.4571H31.4295V69.3693C31.6761 68.958 31.954 68.6091 32.262 68.3206C33.0439 67.6219 34.0413 67.272 35.255 67.272C36.7769 67.272 37.9594 67.7758 38.8027 68.7836C39.1937 69.2572 39.4813 69.7816 39.6665 70.3566C39.7484 69.9862 39.9131 69.612 40.1598 69.2309C40.4065 68.8508 40.6531 68.5477 40.8998 68.3206C41.6807 67.6219 42.6887 67.272 43.923 67.272C45.4243 67.272 46.5962 67.7758 47.4404 68.7836C47.9542 69.38 48.2993 70.0632 48.4738 70.8342H48.4729Z" fill="#DC3C45"/>
<path d="M65.4255 67.4571V82.2614H61.2606V81.6445C60.1912 82.1795 59.0495 82.4466 57.8358 82.4466C56.8277 82.4466 55.8616 82.2565 54.9354 81.8754C54.0102 81.4953 53.1874 80.9457 52.4679 80.2254C51.7475 79.5062 51.1976 78.6885 50.8174 77.7733C50.4362 76.8582 50.2471 75.8875 50.2471 74.8583C50.2471 73.8291 50.4372 72.8584 50.8174 71.9442C51.1976 71.0291 51.7475 70.2124 52.4679 69.4921C53.1874 68.7729 54.0102 68.2232 54.9354 67.8421C55.8606 67.462 56.8277 67.272 57.8358 67.272C59.07 67.272 60.2116 67.5497 61.2606 68.1043V67.4562H65.4255V67.4571ZM61.2597 80.9038V68.8138C60.1902 68.2173 59.0486 67.9191 57.8348 67.9191C56.7858 67.9191 56.0195 68.305 55.536 69.076C55.0524 69.8469 54.7648 70.6899 54.6722 71.6051C54.5796 72.5202 54.5328 73.6049 54.5328 74.8593C54.5328 76.1136 54.5844 77.1983 54.6868 78.1135C54.7892 79.0286 55.0826 79.8717 55.5662 80.6426C56.0488 81.4135 56.8053 81.7994 57.8338 81.7994C59.0476 81.7994 60.1882 81.5012 61.2587 80.9047L61.2597 80.9038Z" fill="#DC3C45"/>
<path d="M80.6343 67.4575L73.6315 82.6009C72.6644 84.6983 71.5023 86.2196 70.1452 87.166C69.3838 87.7001 68.5815 88.0188 67.7392 88.1221L67.3073 88.1533V87.5051C68.1711 87.4847 68.9939 87.1972 69.7748 86.6416C71.0295 85.7577 72.1194 84.3182 73.0456 82.3241L73.3537 81.676L66.5352 67.4575H71.1319L75.6057 76.7718L79.8944 67.4575H80.6343Z" fill="#DC3C45"/>
<path d="M95.1647 67.4571V82.2614H90.9999V81.6445C89.9304 82.1795 88.7888 82.4466 87.575 82.4466C86.567 82.4466 85.6008 82.2565 84.6747 81.8754C83.7495 81.4953 82.9267 80.9457 82.2062 80.2254C81.4857 79.5062 80.9359 78.6885 80.5557 77.7733C80.1745 76.8582 79.9854 75.8875 79.9854 74.8583C79.9854 73.8291 80.1755 72.8584 80.5557 71.9442C80.9359 71.0291 81.4857 70.2124 82.2062 69.4921C82.9257 68.7729 83.7485 68.2232 84.6747 67.8421C85.5999 67.462 86.567 67.272 87.575 67.272C88.8093 67.272 89.9509 67.5497 90.9999 68.1043V67.4562H95.1647V67.4571ZM90.9999 80.9038V68.8138C89.9304 68.2173 88.7888 67.9191 87.575 67.9191C86.526 67.9191 85.7598 68.305 85.2772 69.076C84.7936 69.8469 84.506 70.6899 84.4134 71.6051C84.3208 72.5202 84.275 73.6049 84.275 74.8593C84.275 76.1136 84.3257 77.1983 84.429 78.1135C84.5314 79.0286 84.8248 79.8717 85.3084 80.6426C85.791 81.4135 86.5475 81.7994 87.576 81.7994C88.7898 81.7994 89.9314 81.5012 91.0009 80.9047L90.9999 80.9038Z" fill="#DC3C45"/>
<path d="M28.75 35.8843C28.7968 30.7042 30.0798 25.3731 33.0923 20.5303C35.4252 16.782 38.4855 13.8007 42.6776 12.2365C48.2989 10.1391 53.5361 11.0718 58.2937 14.6544C61.8784 17.3541 64.2884 20.9582 65.8483 25.1217C68.6707 32.6554 68.6336 40.2164 65.8015 47.7384C64.3216 51.669 62.0062 55.0713 58.7548 57.7476C56.2581 59.802 53.3714 61.1051 50.123 61.4579C44.6108 62.0563 40.0521 60.0418 36.2324 56.194C32.7998 52.7361 30.769 48.4995 29.6216 43.8068C29.0249 41.3645 28.7578 38.8812 28.748 35.8843H28.75ZM65.5158 46.603C65.5636 46.5201 65.6007 46.4743 65.6192 46.4217C66.8866 42.7387 67.3799 38.9426 67.2756 35.0578C67.2678 34.7527 67.1001 34.6865 66.8632 34.5968C65.1015 33.9292 63.2979 33.3464 61.5967 32.5472C56.8879 30.3368 52.8303 27.2317 49.3996 23.3148C49.0359 22.8996 48.6791 22.4776 48.2999 22.0351C47.9723 22.4269 47.6789 22.7904 47.3718 23.1423C42.585 28.6235 36.7306 32.4644 29.7639 34.588C29.4354 34.6884 29.3466 34.8414 29.3388 35.1689C29.2677 38.0069 29.4958 40.8158 30.1665 43.5778C30.4122 44.5894 30.7252 45.5855 31.0079 46.5893C31.0537 46.5854 31.0995 46.5815 31.1454 46.5776C32.9236 42.7357 34.0096 38.697 34.5176 34.4769C34.6589 35.1903 34.8227 35.9115 34.7262 36.5967C34.541 37.9261 34.1997 39.233 33.9502 40.5536C33.916 40.7329 34.0018 40.9571 34.0896 41.1325C34.3479 41.652 34.7613 42.1295 34.8851 42.6753C35.1396 43.7961 35.318 44.9461 35.396 46.0923C35.5442 48.2656 35.4457 50.4575 35.8678 52.6104C36.2363 54.4934 36.9139 56.2418 38.4962 57.4308C39.5306 58.2085 40.6888 58.8225 41.7963 59.5028C41.9123 59.574 42.0556 59.6003 42.2272 59.6627C42.2993 59.2475 42.3734 58.8908 42.4212 58.5311C42.779 55.8432 42.4426 53.2186 41.6724 50.6398C41.5369 50.1856 41.3839 49.709 41.1177 49.327C40.3768 48.2627 39.4906 47.293 38.8082 46.1946C37.2727 43.725 36.1886 41.0438 35.4896 38.2223C35.0967 36.6357 34.8295 35.0178 34.5078 33.4136C34.4542 33.1446 34.4523 32.9029 34.8568 32.9029C34.888 33.0111 34.93 33.1183 34.9495 33.2294C35.1688 34.4672 35.3258 35.7195 35.6134 36.9407C36.4576 40.5214 37.728 43.9355 39.8289 46.9899C41.4687 49.3738 43.5092 51.2928 46.2613 52.3463C47.363 52.7683 48.4451 53.0422 49.6589 52.6601C52.7114 51.7001 54.9888 49.7607 56.8177 47.2189C57.9574 45.6342 58.8504 43.9121 59.5816 42.1013C60.5438 39.7193 61.2292 37.2623 61.6367 34.7264C61.7332 34.129 61.8473 33.5345 61.9535 32.938C62.2616 32.9829 62.362 33.0852 62.3211 33.361C62.2587 33.7791 62.1933 34.2118 62.2343 34.627C62.634 38.695 63.684 42.5925 65.356 46.3213C65.395 46.408 65.4525 46.487 65.5188 46.5991L65.5158 46.603ZM67.1985 34.1095C67.1985 33.9389 67.2054 33.8522 67.1985 33.7664C67.0201 31.6759 66.6731 29.6156 66.0745 27.6021C64.7291 23.0789 62.5102 19.0801 58.9323 15.9341C55.4782 12.8963 51.4791 11.3788 46.8326 11.8096C45.6803 11.9168 44.5562 12.1575 43.4175 12.5785C45.5419 17.703 48.6119 22.1219 52.6685 25.8449C56.8616 29.6926 61.6874 32.442 67.1985 34.1095ZM47.984 21.5995C47.5785 21.0459 47.1953 20.5479 46.8375 20.0313C45.3401 17.8726 44.0561 15.5949 43.0539 13.1633C42.9252 12.8514 42.779 12.7949 42.4992 12.9469C42.3198 13.0444 42.1248 13.1136 41.9396 13.2003C38.5108 14.8065 35.9058 17.3385 33.8498 20.466C31.509 24.0272 30.1929 27.9685 29.6196 32.172C29.5358 32.7899 29.4831 33.4127 29.4061 34.1261C36.9305 31.8182 43.0441 27.6128 47.984 21.5985V21.5995ZM54.1796 59.766C56.0592 58.9112 57.7166 57.9327 59.0834 56.541C60.1451 55.4611 60.7778 54.1074 61.0391 52.6319C61.35 50.8776 61.5255 49.0999 61.7722 47.3339C61.972 45.9022 62.2674 44.5066 63.3291 43.4092C63.4081 43.3283 63.3993 43.1139 63.3642 42.9794C63.0298 41.7075 62.6594 40.4444 62.3425 39.1687C62.1368 38.3383 62.0032 37.4894 61.8151 36.5382C61.7371 36.7634 61.6883 36.8813 61.6532 37.0041C61.3344 38.1122 61.082 39.2447 60.6871 40.3255C60.1129 41.8985 59.525 43.4774 58.7802 44.9734C57.9271 46.6878 56.8021 48.2413 55.3699 49.5463C55.2452 49.6593 55.1272 49.8104 55.0745 49.9673C54.1864 52.5968 53.7272 55.2886 53.9631 58.0721C54.008 58.6052 54.0977 59.1344 54.1796 59.766ZM54.3443 50.6982C54.3122 50.6768 54.279 50.6554 54.2468 50.6339C54.162 50.6788 54.0665 50.7109 53.9934 50.7694C52.5485 51.934 50.9282 52.7488 49.1256 53.1864C48.7649 53.2741 48.3662 53.3385 48.0084 53.278C46.4456 53.0129 45.0183 52.3833 43.6993 51.512C43.1962 51.1797 42.7175 50.8123 42.2272 50.4614C42.1862 50.477 42.1462 50.4926 42.1053 50.5092C43.0003 53.5938 43.3883 56.7057 42.621 59.8751C44.1614 60.4833 45.691 60.839 47.2801 60.9374C49.3352 61.0632 51.3348 60.799 53.2846 60.1256C53.6707 59.9921 53.7896 59.8128 53.7019 59.4327C53.6268 59.1052 53.5693 58.7719 53.5313 58.4386C53.2778 56.2165 53.4815 54.0294 54.0402 51.8697C54.1406 51.4799 54.242 51.09 54.3434 50.7002L54.3443 50.6982ZM33.7922 41.6754C33.0211 43.5593 32.2548 45.4198 31.5061 47.2871C31.4495 47.4275 31.4758 47.6341 31.5343 47.7813C32.4946 50.2041 33.8195 52.4145 35.4476 54.4456C35.5822 54.6132 35.7421 54.7604 35.8902 54.9163C35.2 52.9379 35.0313 50.9205 34.9534 48.8845C34.8949 47.3368 34.8295 45.7882 34.7018 44.2454C34.6248 43.3146 34.3889 42.4073 33.7932 41.6754H33.7922ZM63.7191 43.953C63.5572 44.1801 63.3593 44.3711 63.2677 44.604C63.0113 45.2522 62.7178 45.9022 62.5882 46.5805C62.3854 47.6399 62.2928 48.7217 62.1748 49.7967C62.0091 51.3045 61.7849 52.7985 61.2311 54.3306C61.3617 54.2244 61.4124 54.1961 61.4456 54.1542C63.0045 52.1982 64.2426 50.054 65.1834 47.7384C65.2292 47.6253 65.2672 47.4655 65.2243 47.3651C64.7398 46.2414 64.2387 45.1245 63.7191 43.954V43.953Z" fill="#FFFBFF"/>
<path d="M37.0567 33.3172C38.7599 32.9069 40.4553 32.6019 42.1926 32.6574C43.3703 32.6954 44.5246 32.8796 45.5404 33.5463C46.9618 34.478 47.538 35.8746 47.6131 37.4993C47.6608 38.5353 47.578 39.5781 47.6082 40.616C47.6257 41.2398 47.6998 41.8713 47.8422 42.4775C47.9124 42.7748 48.2068 43.0155 48.3803 43.2933C48.4515 43.4073 48.4729 43.5515 48.5178 43.6821C48.3764 43.6782 48.2078 43.7241 48.0996 43.6627C47.4746 43.3089 47.2641 42.6822 47.2182 42.037C47.1402 40.9308 47.1178 39.8178 47.1266 38.7078C47.1354 37.5577 47.1178 36.4233 46.5689 35.3727C45.8378 33.9722 44.5743 33.4215 43.0992 33.2393C41.2001 33.0044 39.338 33.2909 37.4925 33.709C37.1601 33.7841 36.9641 33.7685 37.0558 33.3182L37.0567 33.3172Z" fill="#FFFBFF"/>
<path d="M37.9862 36.4551C38.7886 37.2231 39.7313 37.7338 40.8027 37.9813C42.0984 38.2795 43.4145 38.261 44.7316 38.1606C44.9646 38.1431 45.1976 38.1051 45.4297 38.108C45.5047 38.108 45.6471 38.2201 45.6402 38.261C45.6256 38.3517 45.5466 38.4891 45.4735 38.5027C45.145 38.568 44.8096 38.6119 44.4752 38.6353C42.618 38.7688 40.7832 38.7132 39.0888 37.8117C38.6677 37.5876 38.2943 37.2728 37.9072 36.9872C37.682 36.8206 37.646 36.6373 37.9862 36.4541V36.4551Z" fill="#FFFBFF"/>
<path d="M51.5326 35.3649C51.3415 35.1709 51.2314 35.0062 51.5102 34.8552C53.3235 33.8747 55.1846 33.0122 57.31 33.1223C57.9524 33.1554 58.5851 33.3971 59.2159 33.5696C59.3085 33.595 59.3631 33.7616 59.4353 33.863C59.3085 33.8952 59.175 33.9712 59.057 33.9507C58.4126 33.8386 57.776 33.6184 57.1306 33.5891C55.3319 33.5083 53.732 34.2002 52.178 35.014C51.9713 35.1222 51.7686 35.2362 51.5326 35.3639V35.3649Z" fill="#FFFBFF"/>
<path d="M59.6612 36.5787C58.8861 37.4987 57.8976 38.0308 56.7774 38.3232C55.1873 38.7384 53.5748 38.7716 51.9575 38.4987C51.8356 38.4782 51.7371 38.3154 51.6279 38.218C51.7673 38.1634 51.9136 38.0484 52.0432 38.064C53.9784 38.2989 55.8971 38.3379 57.7094 37.4841C58.2271 37.2404 58.6804 36.8496 59.1445 36.5027C59.3414 36.3555 59.4828 36.2805 59.6602 36.5777L59.6612 36.5787Z" fill="#FFFBFF"/>
<path d="M49.6336 30.7736C49.6122 31.3437 49.0779 31.8359 48.5008 31.8184C47.8924 31.7999 47.4079 31.2716 47.4411 30.6625C47.4732 30.0699 47.9919 29.5875 48.569 29.6138C49.1774 29.6411 49.657 30.1635 49.6336 30.7736Z" fill="#FFFBFF"/>
<path d="M48.3929 49.6056C47.5925 49.6056 46.7862 49.2089 45.9946 48.4263C45.8152 48.249 45.5968 48.1076 45.3658 47.9585C45.2449 47.8806 45.124 47.8016 45.008 47.7178C44.9349 47.6642 44.8705 47.6057 44.8032 47.5443C44.773 47.517 44.7428 47.4888 44.7106 47.4605L44.5283 47.3007L44.7301 47.1672C44.7642 47.1447 44.7906 47.1252 44.8091 47.1116C44.8588 47.0755 44.9407 47.0141 45.047 47.0599C45.4613 47.2393 45.7967 47.1798 46.1681 46.8601C46.7706 46.3417 47.4628 46.2861 48.1706 46.7003C48.2574 46.751 48.4835 46.7344 48.619 46.6662C49.4214 46.2666 50.1058 46.3553 50.6001 46.9245C50.8574 47.2208 51.0651 47.2149 51.3819 47.098C51.4424 47.0755 51.5048 47.059 51.5682 47.0434L51.7534 46.9927L52.039 47.3085L51.9211 47.4332C51.8957 47.4605 51.8714 47.4917 51.847 47.5229C51.7739 47.6174 51.691 47.7246 51.5604 47.7704C51.186 47.903 50.9052 48.1525 50.5991 48.4868C49.9352 49.2109 49.2128 49.5881 48.4523 49.6066C48.4328 49.6066 48.4133 49.6066 48.3929 49.6066V49.6056ZM45.3833 47.5268C45.4447 47.5677 45.5062 47.6077 45.5676 47.6476C45.8045 47.8006 46.0492 47.9595 46.2559 48.1632C46.9919 48.8912 47.726 49.2528 48.4436 49.2343C49.0987 49.2187 49.7324 48.8825 50.3261 48.2343C50.5991 47.9371 50.8565 47.6983 51.1753 47.5326C50.9042 47.5677 50.6118 47.5005 50.3212 47.1662C49.9401 46.7266 49.438 46.6711 48.7858 46.9966C48.5625 47.1077 48.2018 47.1467 47.9844 47.019C47.4189 46.6886 46.8896 46.7286 46.4109 47.1399C46.0755 47.4283 45.7411 47.556 45.3833 47.5258V47.5268Z" fill="#FFFBFF"/>
<path d="M48.8959 48.0124C47.0143 48.0124 45.2039 47.7668 45.0918 47.7512L45.1425 47.3848C45.1834 47.3906 49.204 47.9364 51.456 47.415L51.5399 47.7756C50.7726 47.953 49.826 48.0134 48.8959 48.0134V48.0124Z" fill="#FFFBFF"/>
<path d="M76.8154 4H63.5098V10.1546H76.8154V4Z" fill="#DC3C45"/>
<path d="M76.8145 17.3014V4H70.6579V17.3014H76.8145Z" fill="#DC3C45"/>
</g>
<defs>
<filter id="filter0_d_309_26" x="0" y="0" width="99.165" height="92.1533" filterUnits="userSpaceOnUse" color-interpolation-filters="sRGB">
<feFlood flood-opacity="0" result="BackgroundImageFix"/>
<feColorMatrix in="SourceAlpha" type="matrix" values="0 0 0 0 0 0 0 0 0 0 0 0 0 0 0 0 0 0 127 0" result="hardAlpha"/>
<feOffset/>
<feGaussianBlur stdDeviation="2"/>
<feComposite in2="hardAlpha" operator="out"/>
<feColorMatrix type="matrix" values="0 0 0 0 1 0 0 0 0 1 0 0 0 0 1 0 0 0 0.3 0"/>
<feBlend mode="normal" in2="BackgroundImageFix" result="effect1_dropShadow_309_26"/>
<feBlend mode="normal" in="SourceGraphic" in2="effect1_dropShadow_309_26" result="shape"/>
</filter>
</defs>
</svg>
