<svg width="141" height="79" viewBox="0 0 141 79" fill="none" xmlns="http://www.w3.org/2000/svg">
<g clip-path="url(#clip0_375_254)">
<path d="M32.4295 74.3486C31.6753 74.3486 30.9726 74.7246 30.5439 75.3456C17.2672 72.1588 6.727 61.4576 3.60362 47.9914C4.36438 47.4554 4.75204 46.4859 4.51972 45.5149C4.30658 44.624 3.56212 43.9317 2.66958 43.7862C1.23979 43.5531 0 44.6723 0 46.0793C0 47.1775 0.754278 48.1156 1.78894 48.3476C5.06055 62.569 16.1744 73.8552 30.199 77.189C30.4583 78.3778 31.6072 79.1973 32.8675 78.9583C33.7763 78.7859 34.5105 78.0446 34.6824 77.1234C34.9581 75.6453 33.8422 74.3486 32.4295 74.3486Z" fill="#FFFBF7"/>
<path d="M47.3821 75.3325C46.9566 74.7115 46.2539 74.3323 45.4932 74.3323C44.0848 74.3323 42.9713 75.6212 43.2379 77.0939C43.4046 78.0146 44.1329 78.7588 45.0389 78.9384C46.3015 79.1887 47.4596 78.3665 47.7238 77.1759C49.6863 76.705 51.6224 76.0678 53.4937 75.2788C53.8464 75.1301 54.0736 74.7767 54.0736 74.3893C54.0736 73.7137 53.4695 73.194 52.8862 73.5206C51.4947 74.2994 49.0274 75.2316 47.3821 75.3325Z" fill="#FFFBF7"/>
<path d="M38.934 68.593C33.767 68.593 28.7097 67.1875 24.2938 64.527C24.31 64.4375 24.3196 64.3481 24.3236 64.2562C24.3726 63.1548 23.6895 62.1686 22.6361 61.8954C20.9117 61.4482 19.3855 62.9939 19.8114 64.7396C19.9618 65.3559 20.3702 65.8933 20.9233 66.191C21.7173 66.6183 22.6185 66.5455 23.2946 66.0926C28.0006 68.9558 33.4028 70.4659 38.934 70.4659C44.0857 70.4659 49.1499 69.1472 53.6245 66.6433C53.9031 66.4874 54.0737 66.1867 54.0737 65.8641C54.0737 65.1786 53.3405 64.7467 52.7578 65.0941C50.6165 66.3707 45.9076 68.593 38.934 68.593Z" fill="#FFFBF7"/>
<path d="M14.5137 54.3499C14.4387 54.3545 14.3637 54.3629 14.2887 54.3749C11.6616 49.9068 10.2757 44.7817 10.2757 39.5326C10.2757 34.2964 11.6552 29.1844 14.2661 24.7262C14.3725 24.7425 14.4756 24.749 14.5755 24.749C15.8507 24.749 16.8862 23.6838 16.867 22.383C16.8488 21.1486 15.8222 20.1104 14.6049 20.0949C13.3247 20.0786 12.2806 21.1275 12.2806 22.4186C12.2806 22.8958 12.4256 23.3599 12.6931 23.7489C9.90174 28.5112 8.42871 33.963 8.42871 39.5326C8.42871 45.1413 9.91787 50.6194 12.7415 55.3947C12.4933 55.7705 12.3611 56.215 12.3611 56.6726C12.3611 57.9539 13.3894 58.9966 14.6561 58.9966C15.9421 58.9966 16.9844 57.9164 16.9469 56.604C16.9101 55.3164 15.7816 54.2715 14.5137 54.3499Z" fill="#FFFBF7"/>
<path d="M33.0925 0.097108C31.7341 -0.306247 30.4262 0.597097 30.1834 1.87939C16.2394 5.20345 5.1416 16.4275 1.82486 30.5638C0.780481 30.7861 0.0166016 31.7274 0.0166016 32.8355C0.0166016 34.2759 1.31622 35.4148 2.79329 35.1095C3.53062 34.9571 4.15754 34.4239 4.4356 33.7149C4.84758 32.6644 4.47021 31.5313 3.63635 30.9299C6.80806 17.5159 17.3515 6.86707 30.5863 3.70317C31.015 4.29479 31.7016 4.65109 32.4332 4.65109C33.8189 4.65109 34.9216 3.397 34.6954 1.94524C34.5601 1.07634 33.925 0.344326 33.0925 0.097108Z" fill="#FFFBF7"/>
<path d="M62.4133 11.1976C62.1999 11.1976 61.994 11.1217 61.8286 10.985C57.6579 7.53742 52.7263 5.01743 47.3433 3.71879C46.9175 4.31085 46.2325 4.66778 45.499 4.66778C44.0677 4.66778 42.938 3.33619 43.2562 1.83359C43.4523 0.905933 44.2216 0.179237 45.147 0.0424664C46.4138 -0.145652 47.5225 0.694385 47.7459 1.8913C53.4248 3.25645 58.6155 5.90196 63.0017 9.52808C63.6772 10.0865 63.2849 11.1976 62.4133 11.1976Z" fill="#FFFBF7"/>
<path d="M55.7855 12.5251C55.3245 12.5251 54.8765 12.6657 54.4994 12.9271C49.803 10.0933 44.4266 8.59961 38.9341 8.59961C33.4126 8.59961 28.0168 10.1064 23.314 12.9598C22.7076 12.5377 21.921 12.4231 21.1762 12.7084C20.475 12.9771 19.9411 13.6019 19.7763 14.3434C19.44 15.8562 20.5756 17.2024 22.015 17.2024C23.2818 17.2024 24.31 16.1597 24.31 14.8785C24.31 14.7641 24.3036 14.6529 24.2875 14.5483C28.6969 11.8812 33.7542 10.4725 38.9341 10.4725C44.0849 10.4725 49.1229 11.8681 53.513 14.5091C53.4969 14.6203 53.4904 14.7346 53.4904 14.8523C53.4904 16.1336 54.5187 17.1762 55.7855 17.1762C56.7492 17.1762 57.5776 16.5683 57.9128 15.7119C57.9354 15.6564 57.958 15.5975 57.974 15.5387C58.0418 15.323 58.0772 15.0909 58.0772 14.8523C58.0772 13.5677 57.049 12.5251 55.7855 12.5251Z" fill="#FFFBF7"/>
<path d="M31.5069 46.7141H40.5723C42.7113 46.7141 42.8133 45.2682 42.8133 44.4419C42.8133 43.5123 42.3719 42.445 40.5046 41.3777L35.2418 38.3822C32.4237 36.7984 31.2012 35.0083 31.2012 31.703C31.2012 28.2599 32.8651 26.2285 36.6337 26.2285H46.5482V29.8437H37.8222C36.7017 29.8437 35.8189 30.1879 35.8189 31.9096C35.8189 32.9769 36.1923 33.9407 37.8902 34.9738L42.4736 37.7625C45.5294 39.5874 47.431 40.6891 47.431 44.4764C47.431 48.0224 46.0048 50.3293 42.3379 50.3293H31.5069V46.7141Z" fill="#9CFC00"/>
<path d="M50.0117 35.1802C50.0117 33.4689 51.3799 32.0815 53.0675 32.0815H65.9358C70.0101 32.0815 72.93 33.493 72.93 38.3134V50.3292H68.9576V39.3806C68.9576 37.0608 67.1031 35.1802 64.8153 35.1802H63.4571V50.3292H59.4845V35.1802H55.0028C54.4403 35.1802 53.9843 35.6426 53.9843 36.213V50.3292H50.0117V35.1802Z" fill="#9CFC00"/>
<path d="M84.3387 32.0815C87.7339 32.0815 89.3976 34.3537 89.3976 37.4524V47.2305C89.3976 48.9418 88.0294 50.3292 86.3418 50.3292H79.9927C76.9369 50.3292 75.5107 48.4356 75.5107 44.6483C75.5107 41.2052 76.9369 38.9675 79.9927 38.9675H85.4252V37.7968C85.4252 36.3517 84.27 35.1802 82.8448 35.1802H76.8349V32.0815H84.3387ZM81.5206 42.0662C80.1624 42.0662 79.6191 42.9269 79.6191 44.6483C79.6191 46.3698 80.1624 47.2305 81.5206 47.2305H84.4065C84.9691 47.2305 85.4252 46.768 85.4252 46.1974V42.0662H81.5206Z" fill="#9CFC00"/>
<path d="M92.5205 39.1051C92.5205 35.2261 95.6216 32.0815 99.4469 32.0815H101.111V35.1802H100.465C98.2716 35.1802 96.4931 36.9836 96.4931 39.2083V50.3292H92.5205V39.1051Z" fill="#9CFC00"/>
<path d="M114.073 48.0933C114.043 49.294 113.369 50.3186 112.318 50.329H110.552C106.479 50.329 104.611 48.8488 104.611 44.3776V35.1761H102.468V32.0814H104.611V26.2334H108.582V32.0814H112.318V35.1761H108.582V43.5495C108.582 44.8681 108.755 45.767 109.231 46.3455C109.612 46.8074 110.316 46.7977 110.732 46.3682C111.108 45.981 111.604 45.7402 112.114 45.7541C113.287 45.7955 114.114 46.7788 114.073 48.0933Z" fill="#9CFC00"/>
<path d="M31.5069 46.7141H40.5723C42.7113 46.7141 42.8133 45.2682 42.8133 44.4419C42.8133 43.5123 42.3719 42.445 40.5046 41.3777L35.2418 38.3822C32.4237 36.7984 31.2012 35.0083 31.2012 31.703C31.2012 28.2599 32.8651 26.2285 36.6337 26.2285H46.5482V29.8437H37.8222C36.7017 29.8437 35.8189 30.1879 35.8189 31.9096C35.8189 32.9769 36.1923 33.9407 37.8902 34.9738L42.4736 37.7625C45.5294 39.5874 47.431 40.6891 47.431 44.4764C47.431 48.0224 46.0048 50.3293 42.3379 50.3293H31.5069V46.7141Z" fill="url(#paint0_linear_375_254)"/>
<path d="M50.0117 35.1802C50.0117 33.4689 51.3799 32.0815 53.0675 32.0815H65.9358C70.0101 32.0815 72.93 33.493 72.93 38.3134V50.3292H68.9576V39.3806C68.9576 37.0608 67.1031 35.1802 64.8153 35.1802H63.4571V50.3292H59.4845V35.1802H55.0028C54.4403 35.1802 53.9843 35.6426 53.9843 36.213V50.3292H50.0117V35.1802Z" fill="url(#paint1_linear_375_254)"/>
<path d="M84.3387 32.0815C87.7339 32.0815 89.3976 34.3537 89.3976 37.4524V47.2305C89.3976 48.9418 88.0294 50.3292 86.3418 50.3292H79.9927C76.9369 50.3292 75.5107 48.4356 75.5107 44.6483C75.5107 41.2052 76.9369 38.9675 79.9927 38.9675H85.4252V37.7968C85.4252 36.3517 84.27 35.1802 82.8448 35.1802H76.8349V32.0815H84.3387ZM81.5206 42.0662C80.1624 42.0662 79.6191 42.9269 79.6191 44.6483C79.6191 46.3698 80.1624 47.2305 81.5206 47.2305H84.4065C84.9691 47.2305 85.4252 46.768 85.4252 46.1974V42.0662H81.5206Z" fill="url(#paint2_linear_375_254)"/>
<path d="M92.5205 39.1051C92.5205 35.2261 95.6216 32.0815 99.4469 32.0815H101.111V35.1802H100.465C98.2716 35.1802 96.4931 36.9836 96.4931 39.2083V50.3292H92.5205V39.1051Z" fill="url(#paint3_linear_375_254)"/>
<path d="M114.073 48.0933C114.043 49.294 113.369 50.3186 112.318 50.329H110.552C106.479 50.329 104.611 48.8488 104.611 44.3776V35.1761H102.468V32.0814H104.611V26.2334H108.582V32.0814H112.318V35.1761H108.582V43.5495C108.582 44.8681 108.755 45.767 109.231 46.3455C109.612 46.8074 110.316 46.7977 110.732 46.3682C111.108 45.981 111.604 45.7402 112.114 45.7541C113.287 45.7955 114.114 46.7788 114.073 48.0933Z" fill="url(#paint4_linear_375_254)"/>
<path d="M57.9743 15.5386C57.9583 15.5974 57.9357 15.6563 57.9131 15.7118V15.5386H57.9743Z" fill="#FFFBF7"/>
<path d="M64.3552 28.2V16.4583H60.21V14.3862H71.0886V16.4583H66.9239V28.2H64.3552Z" fill="#FFFBF7"/>
<path d="M72.1777 14.3862H74.4547V17.7411H76.1867C78.5219 17.7411 80.1955 18.5501 80.1955 21.3129V28.2H77.9187V21.9247C77.9187 20.3459 77.3154 19.5171 75.7585 19.5171H74.4547V28.2H72.1777V14.3862Z" fill="#FFFBF7"/>
<path d="M85.567 28.1999C82.4533 28.1999 81.6748 26.3054 81.6748 22.9507C81.6748 18.8065 82.57 17.6226 85.8785 17.6226C88.6029 17.6226 90.0625 18.412 90.0625 21.7666C90.0625 22.9507 89.6343 23.74 88.4667 23.74H84.0295C84.0295 25.3187 84.4967 26.4238 86.2482 26.4238H89.7317V28.1999H85.567ZM87.2017 21.9639C87.6493 21.9639 87.7077 21.6482 87.7077 21.3522C87.7077 19.9708 87.046 19.3986 85.8785 19.3986C84.3215 19.3986 84.0295 20.1879 84.0295 21.9639H87.2017Z" fill="#FFFBF7"/>
<path d="M55.7921 76.7352H57.6787C58.1239 76.7352 58.1451 76.4342 58.1451 76.2622C58.1451 76.0687 58.0533 75.8466 57.6647 75.6246L56.5694 75.0011C55.9829 74.6715 55.7285 74.2989 55.7285 73.6109C55.7285 72.8946 56.0747 72.4717 56.859 72.4717H58.9224V73.2242H57.1064C56.8732 73.2242 56.6894 73.2957 56.6894 73.6539C56.6894 73.8762 56.7672 74.0768 57.1204 74.2918L58.0745 74.8721C58.7104 75.252 59.1062 75.4812 59.1062 76.2693C59.1062 77.0074 58.8094 77.4875 58.0461 77.4875H55.7921V76.7352Z" fill="#FFFBF7"/>
<path d="M63.9761 74.9796C63.9761 76.9359 63.5592 77.5449 61.8563 77.5449C60.1674 77.5449 59.7363 76.9359 59.7363 74.9796C59.7363 73.0236 60.1674 72.4146 61.8563 72.4146C63.5592 72.4146 63.9761 73.0236 63.9761 74.9796ZM61.8563 76.7925C62.8596 76.7925 63.015 76.341 63.015 74.9796C63.015 73.6183 62.8596 73.1668 61.8563 73.1668C60.8528 73.1668 60.6974 73.6183 60.6974 74.9796C60.6974 76.341 60.8528 76.7925 61.8563 76.7925Z" fill="#FFFBF7"/>
<path d="M64.7969 77.4875V73.2242C64.7969 72.651 65.0935 72.4717 65.5175 72.4717H67.8847V73.2242H66.0828C65.8002 73.2242 65.7295 73.2957 65.7295 73.5823V74.5784H67.2135V75.3307H65.7295V77.4875H64.7969Z" fill="#FFFBF7"/>
<path d="M69.845 77.4875V73.2242H68.3398V72.4717H72.2898V73.2242H70.7776V77.4875H69.845Z" fill="#FFFBF7"/>
<path d="M74.5656 76.7352H76.4521C76.8973 76.7352 76.9185 76.4342 76.9185 76.2622C76.9185 76.0687 76.8267 75.8466 76.4381 75.6246L75.3428 75.0011C74.7564 74.6715 74.502 74.2989 74.502 73.6109C74.502 72.8946 74.8482 72.4717 75.6324 72.4717H77.6958V73.2242H75.8799C75.6466 73.2242 75.4628 73.2957 75.4628 73.6539C75.4628 73.8762 75.5406 74.0768 75.8939 74.2918L76.8479 74.8721C77.4838 75.252 77.8796 75.4812 77.8796 76.2693C77.8796 77.0074 77.5828 77.4875 76.8195 77.4875H74.5656V76.7352Z" fill="#FFFBF7"/>
<path d="M78.6064 72.4717H79.5391V77.4875H78.6064V72.4717ZM81.2915 77.4875L79.9984 75.5743C79.8359 75.338 79.8147 75.0512 79.8147 74.908C79.8147 74.7431 79.8711 74.5496 79.9844 74.349L81.0796 72.4717H82.1677L80.8746 74.5281C80.7898 74.6644 80.712 74.7861 80.712 74.9009C80.712 75.0512 80.8252 75.209 80.9312 75.3595L82.4222 77.4875H81.2915Z" fill="#FFFBF7"/>
<path d="M82.9814 77.4875V72.4717H83.9141V77.4875H82.9814Z" fill="#FFFBF7"/>
<path d="M85.5712 77.4875C85.1472 77.4875 84.8506 77.3084 84.8506 76.7352V72.4717H85.7833V76.3768C85.7833 76.6634 85.8539 76.7352 86.1365 76.7352H87.9454V77.4875H85.5712Z" fill="#FFFBF7"/>
<path d="M89.2919 77.4875C88.8679 77.4875 88.5713 77.3084 88.5713 76.7352V72.4717H89.504V76.3768C89.504 76.6634 89.5746 76.7352 89.8572 76.7352H91.6661V77.4875H89.2919Z" fill="#FFFBF7"/>
<path d="M92.2189 76.7352H94.1054C94.5507 76.7352 94.5719 76.4342 94.5719 76.2622C94.5719 76.0687 94.4801 75.8466 94.0914 75.6246L92.9961 75.0011C92.4097 74.6715 92.1553 74.2989 92.1553 73.6109C92.1553 72.8946 92.5015 72.4717 93.2858 72.4717H95.3491V73.2242H93.5332C93.3 73.2242 93.1161 73.2957 93.1161 73.6539C93.1161 73.8762 93.194 74.0768 93.5472 74.2918L94.5013 74.8721C95.1371 75.252 95.5329 75.4812 95.5329 76.2693C95.5329 77.0074 95.2361 77.4875 94.4729 77.4875H92.2189V76.7352Z" fill="#FFFBF7"/>
<path d="M98.1689 77.4875V73.2242C98.1689 72.651 98.4656 72.4717 98.8896 72.4717H101.257V73.2242H99.4548C99.1722 73.2242 99.1016 73.2957 99.1016 73.5823V74.5784H100.586V75.3307H99.1016V77.4875H98.1689Z" fill="#FFFBF7"/>
<path d="M105.981 74.9796C105.981 76.9359 105.564 77.5449 103.861 77.5449C102.172 77.5449 101.741 76.9359 101.741 74.9796C101.741 73.0236 102.172 72.4146 103.861 72.4146C105.564 72.4146 105.981 73.0236 105.981 74.9796ZM103.861 76.7925C104.864 76.7925 105.02 76.341 105.02 74.9796C105.02 73.6183 104.864 73.1668 103.861 73.1668C102.858 73.1668 102.702 73.6183 102.702 74.9796C102.702 76.341 102.858 76.7925 103.861 76.7925Z" fill="#FFFBF7"/>
<path d="M106.802 77.4875V73.2242C106.802 72.651 107.098 72.4717 107.522 72.4717H109.31C110.229 72.4717 110.547 73.0522 110.547 74.0553C110.547 75.0871 110.229 75.7321 109.473 75.7321H109.402V75.7677L110.646 77.4875H109.515L108.413 75.8611C108.321 75.7247 108.25 75.5816 108.25 75.4382V75.3236C108.25 75.123 108.392 74.9796 108.667 74.9796H108.992C109.508 74.9796 109.586 74.6285 109.586 74.0553C109.586 73.4821 109.48 73.2242 108.886 73.2242H108.088C107.805 73.2242 107.734 73.2957 107.734 73.5823V77.4875H106.802Z" fill="#FFFBF7"/>
<path d="M113.162 76.7352H115.049C115.494 76.7352 115.515 76.4342 115.515 76.2622C115.515 76.0687 115.423 75.8466 115.035 75.6246L113.94 75.0011C113.353 74.6715 113.099 74.2989 113.099 73.6109C113.099 72.8946 113.445 72.4717 114.229 72.4717H116.292V73.2242H114.477C114.243 73.2242 114.06 73.2957 114.06 73.6539C114.06 73.8762 114.137 74.0768 114.491 74.2918L115.445 74.8721C116.08 75.252 116.476 75.4812 116.476 76.2693C116.476 77.0074 116.179 77.4875 115.416 77.4875H113.162V76.7352Z" fill="#FFFBF7"/>
<path d="M119.856 75.6676V72.4717H120.789V75.6676C120.789 77.1005 120.266 77.5449 118.994 77.5449C117.722 77.5449 117.199 77.1005 117.199 75.6676V72.4717H118.132V75.6676C118.132 76.4557 118.287 76.7924 118.994 76.7924C119.701 76.7924 119.856 76.4557 119.856 75.6676Z" fill="#FFFBF7"/>
<path d="M123.535 77.4875C121.84 77.4875 121.578 76.4127 121.578 74.9796C121.578 73.5466 121.84 72.4717 123.535 72.4717H124.814V73.2242H123.974C122.772 73.2242 122.539 73.6182 122.539 74.9796C122.539 76.3409 122.772 76.7352 123.974 76.7352H124.892V77.4875H123.535Z" fill="#FFFBF7"/>
<path d="M127.369 77.4875C125.674 77.4875 125.412 76.4127 125.412 74.9796C125.412 73.5466 125.674 72.4717 127.369 72.4717H128.648V73.2242H127.807C126.606 73.2242 126.373 73.6182 126.373 74.9796C126.373 76.3409 126.606 76.7352 127.807 76.7352H128.726V77.4875H127.369Z" fill="#FFFBF7"/>
<path d="M132.569 77.4875H130.174C129.75 77.4875 129.453 77.3084 129.453 76.7352V73.2242C129.453 72.651 129.75 72.4717 130.174 72.4717H132.541V73.2242H130.739C130.456 73.2242 130.386 73.2957 130.386 73.5823V74.5496H132.47V75.3021H130.386V76.3768C130.386 76.6634 130.456 76.7352 130.739 76.7352H132.569V77.4875Z" fill="#FFFBF7"/>
<path d="M133.235 76.7352H135.122C135.567 76.7352 135.588 76.4342 135.588 76.2622C135.588 76.0687 135.497 75.8466 135.108 75.6246L134.013 75.0011C133.426 74.6715 133.172 74.2989 133.172 73.6109C133.172 72.8946 133.518 72.4717 134.302 72.4717H136.366V73.2242H134.55C134.317 73.2242 134.133 73.2957 134.133 73.6539C134.133 73.8762 134.211 74.0768 134.564 74.2918L135.518 74.8721C136.154 75.252 136.55 75.4812 136.55 76.2693C136.55 77.0074 136.253 77.4875 135.489 77.4875H133.235V76.7352Z" fill="#FFFBF7"/>
<path d="M137.191 76.7352H139.077C139.522 76.7352 139.544 76.4342 139.544 76.2622C139.544 76.0687 139.452 75.8466 139.063 75.6246L137.968 75.0011C137.381 74.6715 137.127 74.2989 137.127 73.6109C137.127 72.8946 137.473 72.4717 138.257 72.4717H140.321V73.2242H138.505C138.272 73.2242 138.088 73.2957 138.088 73.6539C138.088 73.8762 138.166 74.0768 138.519 74.2918L139.473 74.8721C140.109 75.252 140.505 75.4812 140.505 76.2693C140.505 77.0074 140.208 77.4875 139.445 77.4875H137.191V76.7352Z" fill="#FFFBF7"/>
<path d="M56.0205 68.8515V56.0325C56.0205 54.3092 56.913 53.7705 58.1877 53.7705H65.3054V56.0325H59.8876C59.0378 56.0325 58.8252 56.2481 58.8252 57.1098V60.1046H63.287V62.3666H58.8252V68.8515H56.0205Z" fill="#FFFBF7"/>
<path d="M68.5988 68.8512C65.1994 68.8512 64.3496 66.7829 64.3496 63.1202C64.3496 58.5961 65.3269 57.3032 68.9386 57.3032C71.9131 57.3032 73.5067 58.1649 73.5067 61.8276C73.5067 63.1202 73.0394 63.9822 71.7644 63.9822H66.9205C66.9205 65.7056 67.4301 66.9122 69.3422 66.9122H73.1454V68.8512H68.5988ZM70.3834 62.0432C70.8723 62.0432 70.9358 61.6983 70.9358 61.3753C70.9358 59.8672 70.2136 59.2422 68.9386 59.2422C67.239 59.2422 66.9205 60.1043 66.9205 62.0432H70.3834Z" fill="#FFFBF7"/>
<path d="M74.5918 53.7705H77.0775V68.8515H74.5918V53.7705Z" fill="#FFFBF7"/>
<path d="M78.502 53.7705H80.9877V68.8515H78.502V53.7705Z" fill="#FFFBF7"/>
<path d="M92.3543 63.1202C92.3543 67.6879 91.0373 68.9804 87.213 68.9804C83.3883 68.9804 82.0713 67.6879 82.0713 63.1202C82.0713 58.5961 83.3883 57.3032 87.213 57.3032C91.0373 57.3032 92.3543 58.5961 92.3543 63.1202ZM87.213 67.0415C89.3374 67.0415 89.7835 65.9212 89.7835 63.1202C89.7835 60.3195 89.3374 59.2422 87.213 59.2422C85.0882 59.2422 84.6421 60.3195 84.6421 63.1202C84.6421 65.9212 85.0882 67.0415 87.213 67.0415Z" fill="#FFFBF7"/>
<path d="M96.5836 65.8779C96.6263 66.072 96.6899 66.2228 96.7962 66.2228C96.9237 66.2228 96.9661 66.0935 97.0085 65.8997L98.4322 58.5743C98.6872 57.3032 99.8555 57.3032 100.281 57.3032C100.706 57.3032 101.874 57.3032 102.129 58.5743L103.574 65.8997C103.616 66.0935 103.659 66.2228 103.786 66.2228C103.892 66.2228 103.956 66.0935 103.999 65.8779L105.72 57.454H108.099L105.847 67.4293C105.592 68.5496 104.976 68.9804 103.914 68.9804C102.851 68.9804 101.959 68.5496 101.768 67.4938L100.451 60.5566C100.408 60.3843 100.387 60.1902 100.281 60.1902C100.174 60.1902 100.153 60.3843 100.111 60.5566L98.7935 67.4938C98.6021 68.5496 97.7099 68.9804 96.6475 68.9804C95.5851 68.9804 94.9688 68.5496 94.7142 67.4293L92.4619 57.454H94.8417L96.5836 65.8779Z" fill="#FFFBF7"/>
<path d="M108.484 66.9123H113.115C113.625 66.9123 114.157 66.8475 114.157 66.0936C114.157 64.887 113.2 64.7362 112.223 64.2839L110.906 63.6804C108.632 62.6465 108.335 61.8277 108.335 60.1903C108.335 58.122 109.291 57.4326 111.565 57.4326H116.217V59.3716H111.947C111.14 59.3716 110.757 59.3931 110.757 60.2337C110.757 61.2031 111.288 61.4832 112.096 61.8707L113.668 62.6035C115.58 63.4867 116.749 63.9608 116.749 66.158C116.749 67.9033 116.132 68.8513 113.987 68.8513H108.484V66.9123Z" fill="#FFFBF7"/>
<path d="M117.747 53.7705H120.233V57.4329H122.124C124.673 57.4329 126.501 58.3164 126.501 61.3323V68.8515H124.015V62.0002C124.015 60.2769 123.356 59.3718 121.656 59.3718H120.233V68.8515H117.747V53.7705Z" fill="#FFFBF7"/>
<path d="M127.926 55.9245V53.5977H130.412V55.9245H127.926ZM127.926 57.4326H130.412V68.8513H127.926V57.4326Z" fill="#FFFBF7"/>
<path d="M140.686 60.1567C140.63 59.941 140.507 59.6245 140.426 59.4486C140.426 59.4486 140.426 59.4503 140.426 59.4509C139.439 56.9364 135.932 57.4779 133.748 57.4339C131.532 57.2613 131.815 59.7023 131.836 61.2342L131.836 68.8518H134.321V66.4082C135.373 66.3794 137.43 66.5228 138.36 66.1752C141.056 65.5621 141.38 61.8695 140.686 60.1567ZM135.999 64.4696H134.321V59.9324C134.321 59.5648 134.555 59.3724 134.958 59.3724C136.702 59.2465 138.229 59.5352 138.36 61.2918C138.357 61.2939 138.357 61.2961 138.36 61.2982C138.449 61.8873 138.448 62.5647 138.36 63.1534C138.357 63.1556 138.357 63.1577 138.36 63.1599C138.183 64.3397 137.647 64.4696 135.999 64.4696Z" fill="#FFFBF7"/>
</g>
<defs>
<linearGradient id="paint0_linear_375_254" x1="57.6345" y1="65.6258" x2="87.8148" y2="14.0753" gradientUnits="userSpaceOnUse">
<stop stop-color="#FF8310"/>
<stop offset="0.546109" stop-color="#FF4E4A"/>
<stop offset="1" stop-color="#FF217E"/>
</linearGradient>
<linearGradient id="paint1_linear_375_254" x1="57.6348" y1="65.6256" x2="87.8151" y2="14.0751" gradientUnits="userSpaceOnUse">
<stop stop-color="#FF8310"/>
<stop offset="0.546109" stop-color="#FF4E4A"/>
<stop offset="1" stop-color="#FF217E"/>
</linearGradient>
<linearGradient id="paint2_linear_375_254" x1="57.6349" y1="65.6256" x2="87.8152" y2="14.0751" gradientUnits="userSpaceOnUse">
<stop stop-color="#FF8310"/>
<stop offset="0.546109" stop-color="#FF4E4A"/>
<stop offset="1" stop-color="#FF217E"/>
</linearGradient>
<linearGradient id="paint3_linear_375_254" x1="57.6344" y1="65.6256" x2="87.8146" y2="14.0751" gradientUnits="userSpaceOnUse">
<stop stop-color="#FF8310"/>
<stop offset="0.546109" stop-color="#FF4E4A"/>
<stop offset="1" stop-color="#FF217E"/>
</linearGradient>
<linearGradient id="paint4_linear_375_254" x1="57.6348" y1="65.6258" x2="87.815" y2="14.0753" gradientUnits="userSpaceOnUse">
<stop stop-color="#FF8310"/>
<stop offset="0.546109" stop-color="#FF4E4A"/>
<stop offset="1" stop-color="#FF217E"/>
</linearGradient>
<clipPath id="clip0_375_254">
<rect width="141" height="79" fill="white"/>
</clipPath>
</defs>
</svg>
